<svg width="59" height="49" viewBox="0 0 59 49" fill="none" xmlns="http://www.w3.org/2000/svg">
<path d="M40.5625 0C36.8013 0 33.5563 2.14107 31.565 5.38327C34.8838 8.68664 36.875 13.2135 36.875 18.4132C36.875 20.1873 36.6537 21.7778 36.2113 23.3683C37.6125 24.0412 39.0137 24.5306 40.5625 24.5306C46.6838 24.5306 51.625 19.025 51.625 12.2959C51.625 5.56679 46.6838 0.0611735 40.5625 0.0611735V0ZM18.4375 6.11735C12.3162 6.11735 7.375 11.623 7.375 18.3521C7.375 25.0811 12.3162 30.5868 18.4375 30.5868C24.5588 30.5868 29.5 25.0811 29.5 18.3521C29.5 11.623 24.5588 6.11735 18.4375 6.11735ZM53.4688 25.4482C50.2975 28.568 45.9463 30.4644 41.005 30.5868C42.9963 32.9114 44.25 35.7253 44.25 38.784V42.8215H59V32.6667C59 29.4856 56.7137 26.7328 53.4688 25.387V25.4482ZM5.53125 31.5655C2.28625 32.9114 0 35.6642 0 38.8452V49H36.875V38.8452C36.875 35.6642 34.5887 32.9114 31.3438 31.5655C28.025 34.8077 23.5263 36.7041 18.4375 36.7041C13.3488 36.7041 8.85 34.7466 5.53125 31.5655Z" fill="white"/>
</svg>
