<svg width="23" height="22" viewBox="0 0 23 22" fill="none" xmlns="http://www.w3.org/2000/svg">
<path d="M0.713867 2.68555C0.713867 1.98242 0.967773 1.39648 1.47559 0.927734C1.9834 0.449219 2.6377 0.209961 3.43848 0.209961C4.24902 0.209961 4.90332 0.449219 5.40137 0.927734C5.90918 1.39648 6.16309 1.98242 6.16309 2.68555C6.16309 3.38867 5.90918 3.97949 5.40137 4.45801C4.90332 4.92676 4.24902 5.16113 3.43848 5.16113C2.6377 5.16113 1.9834 4.92676 1.47559 4.45801C0.967773 3.97949 0.713867 3.38867 0.713867 2.68555ZM17.2666 2.68555C17.2666 1.98242 17.5205 1.39648 18.0283 0.927734C18.5361 0.449219 19.1904 0.209961 19.9912 0.209961C20.8018 0.209961 21.4561 0.449219 21.9541 0.927734C22.4619 1.39648 22.7158 1.98242 22.7158 2.68555C22.7158 3.38867 22.4619 3.97949 21.9541 4.45801C21.4561 4.92676 20.8018 5.16113 19.9912 5.16113C19.1904 5.16113 18.5361 4.92676 18.0283 4.45801C17.5205 3.97949 17.2666 3.38867 17.2666 2.68555ZM0.713867 10.6855C0.713867 9.98242 0.967773 9.39648 1.47559 8.92773C1.9834 8.44922 2.6377 8.20996 3.43848 8.20996C4.24902 8.20996 4.90332 8.44922 5.40137 8.92773C5.90918 9.39648 6.16309 9.98242 6.16309 10.6855C6.16309 11.3887 5.90918 11.9795 5.40137 12.458C4.90332 12.9268 4.24902 13.1611 3.43848 13.1611C2.6377 13.1611 1.9834 12.9268 1.47559 12.458C0.967773 11.9795 0.713867 11.3887 0.713867 10.6855ZM17.2666 10.6855C17.2666 9.98242 17.5205 9.39648 18.0283 8.92773C18.5361 8.44922 19.1904 8.20996 19.9912 8.20996C20.8018 8.20996 21.4561 8.44922 21.9541 8.92773C22.4619 9.39648 22.7158 9.98242 22.7158 10.6855C22.7158 11.3887 22.4619 11.9795 21.9541 12.458C21.4561 12.9268 20.8018 13.1611 19.9912 13.1611C19.1904 13.1611 18.5361 12.9268 18.0283 12.458C17.5205 11.9795 17.2666 11.3887 17.2666 10.6855ZM0.713867 18.6855C0.713867 17.9824 0.967773 17.3965 1.47559 16.9277C1.9834 16.4492 2.6377 16.21 3.43848 16.21C4.24902 16.21 4.90332 16.4492 5.40137 16.9277C5.90918 17.3965 6.16309 17.9824 6.16309 18.6855C6.16309 19.3887 5.90918 19.9795 5.40137 20.458C4.90332 20.9268 4.24902 21.1611 3.43848 21.1611C2.6377 21.1611 1.9834 20.9268 1.47559 20.458C0.967773 19.9795 0.713867 19.3887 0.713867 18.6855ZM17.2666 18.6855C17.2666 17.9824 17.5205 17.3965 18.0283 16.9277C18.5361 16.4492 19.1904 16.21 19.9912 16.21C20.8018 16.21 21.4561 16.4492 21.9541 16.9277C22.4619 17.3965 22.7158 17.9824 22.7158 18.6855C22.7158 19.3887 22.4619 19.9795 21.9541 20.458C21.4561 20.9268 20.8018 21.1611 19.9912 21.1611C19.1904 21.1611 18.5361 20.9268 18.0283 20.458C17.5205 19.9795 17.2666 19.3887 17.2666 18.6855Z" fill="#616161"/>
</svg>
